HIERARCHY
ROOT Hips
{
	OFFSET 0.000000 0.000000 0.000000
	CHANNELS 6 Xposition Yposition Zposition Zrotation Yrotation Xrotation 
	JOINT LHipJoint
	{
		OFFSET 0.000000 0.000000 0.000000
		CHANNELS 3 Zrotation Yrotation Xrotation
		JOINT LeftUpLeg
		{
			OFFSET 1.363060 -1.794630 0.839290
			CHANNELS 3 Zrotation Yrotation Xrotation
			JOINT LeftLeg
			{
				OFFSET 2.448110 -6.726130 0.000000
				CHANNELS 3 Zrotation Yrotation Xrotation
				JOINT LeftFoot
				{
					OFFSET 2.562200 -7.039590 0.000000
					CHANNELS 3 Zrotation Yrotation Xrotation
					JOINT LeftToeBase
					{
						OFFSET 0.157640 -0.433110 2.322550
						CHANNELS 3 Zrotation Yrotation Xrotation
						End Site
						{
							OFFSET 0.000000 0.000000 0.000000
						}
					}
				}
			}
		}
	}
	JOINT RHipJoint
	{
		OFFSET 0.000000 0.000000 0.000000
		CHANNELS 3 Zrotation Yrotation Xrotation
		JOINT RightUpLeg
		{
			OFFSET -1.305520 -1.794630 0.839290
			CHANNELS 3 Zrotation Yrotation Xrotation
			JOINT RightLeg
			{
				OFFSET -2.542530 -6.985550 0.000000
				CHANNELS 3 Zrotation Yrotation Xrotation
				JOINT RightFoot
				{
					OFFSET -2.568260 -7.056230 0.000000
					CHANNELS 3 Zrotation Yrotation Xrotation
					JOINT RightToeBase
					{
						OFFSET -0.164730 -0.452590 2.363150
						CHANNELS 3 Zrotation Yrotation Xrotation
						End Site
						{
							OFFSET 0.000000 0.000000 0.000000
						}
					}
				}
			}
		}
	}
	JOINT LowerBack
	{
		OFFSET 0.000000 0.000000 0.000000
		CHANNELS 3 Zrotation Yrotation Xrotation
		JOINT Spine
		{
			OFFSET 0.028270 2.035590 -0.193380
			CHANNELS 3 Zrotation Yrotation Xrotation
			JOINT Spine1
			{
				OFFSET 0.056720 2.048850 -0.042750
				CHANNELS 3 Zrotation Yrotation Xrotation
				JOINT Neck
				{
					OFFSET 0.000000 0.000000 0.000000
					CHANNELS 3 Zrotation Yrotation Xrotation
					JOINT Neck1
					{
						OFFSET -0.054170 1.746240 0.172020
						CHANNELS 3 Zrotation Yrotation Xrotation
						JOINT Head
						{
							OFFSET 0.104070 1.761360 -0.123970
							CHANNELS 3 Zrotation Yrotation Xrotation
							End Site
							{
								OFFSET 0.000000 0.000000 0.000000
							}
						}
					}
				}
				JOINT LeftShoulder
				{
					OFFSET 0.000000 0.000000 0.000000
					CHANNELS 3 Zrotation Yrotation Xrotation
					JOINT LeftArm
					{
						OFFSET 3.362410 1.200890 -0.311210
						CHANNELS 3 Zrotation Yrotation Xrotation
						JOINT LeftForeArm
						{
							OFFSET 4.983000 -0.000000 -0.000000
							CHANNELS 3 Zrotation Yrotation Xrotation
							JOINT LeftHand
							{
								OFFSET 3.483560 -0.000000 -0.000000
								CHANNELS 3 Zrotation Yrotation Xrotation
								JOINT LeftFingerBase
								{
									OFFSET 0.000000 0.000000 0.000000
									CHANNELS 3 Zrotation Yrotation Xrotation
									JOINT LeftHandIndex1
									{
										OFFSET 0.715260 -0.000000 -0.000000
										CHANNELS 3 Zrotation Yrotation Xrotation
										End Site
										{
											OFFSET 0.000000 0.000000 0.000000
										}
									}
								}
								JOINT LThumb
								{
									OFFSET 0.000000 0.000000 0.000000
									CHANNELS 3 Zrotation Yrotation Xrotation
									End Site
									{
										OFFSET 0.000000 0.000000 0.000000
									}
								}
							}
						}
					}
				}
				JOINT RightShoulder
				{
					OFFSET 0.000000 0.000000 0.000000
					CHANNELS 3 Zrotation Yrotation Xrotation
					JOINT RightArm
					{
						OFFSET -3.136600 1.374050 -0.404650
						CHANNELS 3 Zrotation Yrotation Xrotation
						JOINT RightForeArm
						{
							OFFSET -5.241900 -0.000000 -0.000000
							CHANNELS 3 Zrotation Yrotation Xrotation
							JOINT RightHand
							{
								OFFSET -3.444170 -0.000000 -0.000000
								CHANNELS 3 Zrotation Yrotation Xrotation
								JOINT RightFingerBase
								{
									OFFSET 0.000000 0.000000 0.000000
									CHANNELS 3 Zrotation Yrotation Xrotation
									JOINT RightHandIndex1
									{
										OFFSET -0.622530 -0.000000 -0.000000
										CHANNELS 3 Zrotation Yrotation Xrotation
										End Site
										{
											OFFSET 0.000000 0.000000 0.000000
										}
									}
								}
								JOINT RThumb
								{
									OFFSET 0.000000 0.000000 0.000000
									CHANNELS 3 Zrotation Yrotation Xrotation
									End Site
									{
										OFFSET 0.000000 0.000000 0.000000
									}
								}
							}
						}
					}
				}
			}
		}
	}
}
MOTION
Frames: 9
Frame Time: 0.008333
7.628166 19.105979 -0.392924 -4.081869 -49.548903 11.551151 -1.612962 -3.862444 -2.752193 0.298352 -1.581318 -31.034329 5.035540 13.812222 41.652435 -0.339531 10.625945 13.845490 3.887700 12.009400 35.765300 -2.517619 2.756980 -4.256016 22.740168 1.758009 7.064509 0.389773 -2.924969 4.672847 0.534534 -18.249464 -21.573947 -4.896500 -13.266300 40.373600 7.824088 4.471472 13.135983 0.903827 6.469264 -3.465437 -6.643339 3.560473 -2.661560 0.496608 3.234420 -9.734373 -1.853962 5.191749 13.952344 -0.773200 2.737800 3.735300 -0.253864 -8.719193 4.024041 -34.021071 35.995190 58.139555 7.503167 -11.021509 -0.941565 0.761209 -0.374829 -1.270730 -5.216707 -18.778884 1.887400 -7.125000 0.000000 0.000000 -21.898400 12.412300 18.085700 -0.741036 10.672003 -0.656397 17.112833 52.522220 27.576110 -85.640403 56.520012 -57.405274 -0.371011 1.008209 -23.247148 -13.135542 -39.349805 8.646000 7.125000 0.000000 0.000000 32.284200 -68.623700 -19.021300 
7.632593 19.303818 -0.335372 -4.686785 -49.816235 12.527263 -1.616889 -3.894508 -2.805519 0.029638 -1.658349 -32.315636 5.157401 13.928858 42.188255 -0.336833 9.843194 13.098794 3.530800 11.508400 34.014300 -2.400223 2.852170 -4.236931 23.132934 3.996903 9.188706 0.470802 -1.726531 1.541423 0.411856 -18.593200 -25.110750 -6.271800 -14.686600 46.063000 8.106057 4.688755 13.499576 0.913345 6.857071 -3.389044 -6.726286 3.715021 -2.191887 0.371127 3.022101 -10.417300 -2.250509 5.027173 14.361736 -0.839200 2.627800 3.950000 -0.234391 -8.333340 3.578597 -30.947302 38.333016 60.033039 7.751433 -11.331253 -0.949563 0.746713 -0.317412 -2.414830 -4.202998 -17.670480 1.471900 -7.125000 0.000000 0.000000 -21.376300 13.389800 17.106400 -0.655265 10.250990 0.759300 3.458723 53.940394 16.815116 -87.438605 58.315651 -59.147262 -0.337204 1.024217 -23.071163 -15.475302 -39.165331 10.206600 7.125000 0.000000 0.000000 29.351900 -69.227200 -17.567800 
7.636922 19.464667 -0.276739 -5.572397 -49.764025 13.726531 -1.585569 -3.906414 -2.841778 -0.085935 -1.844460 -33.700486 5.336946 14.084778 42.942603 -0.378003 9.096073 11.916072 3.135300 10.910900 31.980100 -2.403109 2.894397 -4.253450 23.520993 4.892252 10.094176 0.486112 -1.187401 0.121738 0.641077 -19.847229 -24.812056 -6.042900 -14.469800 45.153500 8.896309 4.731986 13.687206 0.842778 7.029408 -3.288713 -7.218612 3.754212 -1.461345 0.269686 2.840771 -11.286346 -2.274108 4.843677 15.142178 -0.809200 2.526500 4.279400 -0.196644 -7.876332 2.987903 -27.540121 40.664471 62.824174 8.078810 -11.846057 -1.084151 0.855980 -0.254634 -4.952586 -2.767109 -21.031507 1.273300 -7.125000 0.000000 0.000000 -20.257400 10.189100 17.516900 -0.565070 9.701091 2.548806 -11.270946 53.951054 5.567784 -88.718984 59.488189 -60.285533 -0.387231 1.012651 -23.241524 -13.854252 -40.218775 9.281100 7.125000 0.000000 0.000000 32.994700 -69.555700 -20.143800 
7.643513 19.576130 -0.216531 -6.497227 -49.455574 14.918114 -1.525030 -3.903225 -2.852430 -0.133981 -2.249549 -35.083491 5.539207 14.250170 43.767788 -0.417630 8.450063 10.739750 3.363400 11.261400 33.166500 -2.547472 2.868914 -4.320818 23.595834 3.975119 9.390585 0.453013 -1.480002 0.854627 1.099580 -21.402024 -19.956300 -4.365200 -12.631100 38.002700 9.954337 4.652154 13.850941 0.711151 7.040095 -3.225540 -7.979611 3.730346 -0.816610 0.029356 2.653523 -11.499873 -2.343636 4.626967 15.243095 -0.786000 2.403300 4.274100 -0.169517 -7.526330 2.450950 -24.185123 43.093093 64.664157 8.546571 -12.552864 -1.164305 0.836358 -0.222895 -7.831654 -3.011300 -20.816418 1.334300 -7.125000 0.000000 0.000000 -20.401900 10.404300 17.564700 -0.520584 9.217189 4.058871 -24.066436 52.155840 -3.589303 -88.936425 60.301095 -60.489374 -0.217311 1.066603 -22.830898 -20.638678 -36.867070 13.184500 7.125000 0.000000 0.000000 19.732300 -68.880900 -11.460200 
7.650695 19.634272 -0.150913 -7.101392 -49.149671 15.546529 -1.471109 -3.888056 -2.828669 -0.459919 -2.648620 -36.062455 5.692605 14.392017 44.406890 -0.397391 7.876981 10.202644 3.204500 11.019000 32.344100 -2.744438 2.829470 -4.442857 23.144491 1.466939 7.794666 0.325575 -2.420838 3.384519 1.068977 -21.305709 -12.556017 -1.532000 -7.814300 22.151600 10.472705 4.548809 14.365224 0.783265 7.025409 -3.133772 -8.162178 3.701042 -0.799295 0.296302 2.577503 -12.203757 -2.900242 4.676597 16.083325 -0.967400 2.403800 4.678000 -0.146680 -7.384775 2.053206 -21.379458 46.025245 69.380015 9.430674 -13.870997 -1.303245 0.772288 -0.140075 -11.678861 -2.005293 -19.497829 0.899600 -7.125000 0.000000 0.000000 -19.848500 11.570000 16.512800 -0.515473 9.149165 4.740754 -29.409191 51.838309 -11.888981 -80.531466 60.006760 -53.389669 -0.532245 0.940855 -16.270789 -2.435124 -38.788029 1.404200 7.125000 0.000000 0.000000 42.624800 -64.890700 -22.348200 
7.653941 19.632993 -0.084114 -7.573282 -48.897040 16.018522 -1.402128 -3.844602 -2.786200 -0.920795 -2.890101 -37.038347 5.849937 14.533789 45.037811 -0.318693 7.248893 10.277024 2.095400 9.062100 25.989800 -3.024972 2.811910 -4.599315 22.718091 -1.484816 5.789109 0.032235 -3.594414 6.730068 0.292330 -19.304693 -2.204237 -1.646300 8.086800 -22.978000 10.431934 4.472377 14.814655 1.087493 7.032250 -3.026786 -7.658636 3.687263 -0.655343 -0.006851 2.357448 -12.747991 -3.560091 4.601532 16.887089 -0.969500 2.299400 4.478000 -0.120056 -7.095147 1.618924 -20.441816 48.035239 69.008247 9.696657 -14.262231 -1.341978 0.743510 -0.115738 -10.772436 -1.025354 -18.609902 0.546400 -7.125000 0.000000 0.000000 -19.297900 12.334900 15.667200 -0.505474 8.857073 5.838324 -39.449317 49.220741 -15.467204 -78.065529 60.485835 -51.380481 -0.532834 0.995419 -19.284325 -7.859527 -39.343262 5.010300 7.125000 0.000000 0.000000 38.150800 -66.969000 -21.442100 
7.651482 19.590395 -0.018200 -7.951106 -48.706159 16.184569 -1.382039 -3.818789 -2.773165 -1.356785 -3.037329 -37.593974 5.957899 14.660577 45.503719 -0.261344 6.770052 10.280157 1.575700 7.919800 22.470800 -3.083818 2.816165 -4.651889 22.154872 -3.651674 4.335677 -0.288771 -4.786501 10.091788 -0.351590 -14.867102 2.107192 -5.640600 14.070800 -43.521700 10.190915 4.447326 15.444534 1.448634 7.108447 -2.877781 -7.011878 3.718285 -0.714381 -0.121164 2.112913 -12.754090 -4.304127 4.435878 16.801918 -1.149000 2.165500 4.442700 -0.089780 -6.931486 1.309629 -19.952524 49.720821 67.809233 9.389463 -13.864967 -1.265240 0.722990 -0.115916 -8.921508 -0.548273 -18.051545 0.381200 -7.125000 0.000000 0.000000 -19.033900 12.820700 15.219600 -0.508629 8.719221 6.502739 -46.152695 47.413782 -18.035932 -73.571209 60.433414 -47.707473 -0.583251 1.012729 -20.075970 -9.090196 -39.059057 5.774800 7.125000 0.000000 0.000000 36.538100 -67.149400 -20.579900 
7.643021 19.505199 0.051845 -8.145954 -48.513978 16.118664 -1.386346 -3.804376 -2.770005 -1.846199 -3.157438 -37.977817 6.065877 14.806313 45.996202 -0.231779 6.311957 9.953093 1.654100 8.105000 23.033400 -3.017726 2.857791 -4.668242 21.313229 -5.738089 3.267497 -0.572877 -5.881946 13.150512 -0.523342 -11.099085 2.964724 -7.517400 15.752500 -50.804900 9.886856 4.278220 15.936167 1.788104 6.962983 -2.662663 -6.347922 3.631582 -0.707782 0.199432 1.955985 -13.473650 -5.498113 4.539938 17.766885 -1.473600 2.133700 4.828500 -0.068246 -6.744245 0.979163 -19.584227 51.797193 68.330504 9.255949 -13.717170 -1.221452 0.692861 -0.093784 -8.860938 0.006746 -17.343297 0.195700 -7.125000 0.000000 0.000000 -18.721300 13.444700 14.677800 -0.520379 8.665414 7.123322 -51.540579 47.217347 -21.843448 -67.756807 59.817135 -42.929025 -0.657037 1.025238 -19.390943 -7.998164 -39.369016 5.045300 7.125000 0.000000 0.000000 38.285700 -67.061900 -21.605800 
7.632003 19.376225 0.124941 -8.466764 -48.116958 16.134692 -1.385835 -3.793133 -2.772287 -2.187380 -3.264195 -38.431966 6.253446 15.001420 46.768206 -0.155325 5.425794 9.692081 1.683600 8.173300 23.241700 -2.915623 2.920290 -4.665093 20.563747 -7.881392 2.476840 -0.815340 -6.834898 15.814069 -0.488663 -8.402301 2.320596 -8.480500 16.461500 -54.275400 9.643932 3.923476 16.268634 2.252967 6.570793 -2.475210 -5.507409 3.415987 -0.684973 0.364746 1.910708 -13.889702 -6.661031 4.799982 18.669196 -1.761300 2.168300 5.150100 -0.042939 -6.563696 0.578145 -19.535802 54.373410 69.725075 9.417605 -13.980350 -1.238582 0.658167 -0.058778 -9.339811 0.789816 -16.466454 -0.042000 -7.125000 0.000000 0.000000 -18.269700 14.214500 13.966600 -0.517170 8.575822 7.828624 -56.570873 48.433724 -27.357667 -62.852631 59.094774 -38.925011 -0.724937 1.049696 -18.243484 -6.857951 -40.566319 4.350600 7.125000 0.000000 0.000000 41.562300 -67.605700 -24.201400 
